<?xml version="1.0" encoding="UTF-8"?>
<svg xmlns="http://www.w3.org/2000/svg" width="216" height="216" xmlns:xlink="http://www.w3.org/1999/xlink" viewBox="0 0 216 216">
  <defs>
    <style>
      .cls-1 {
        mix-blend-mode: multiply;
        opacity: .2;
      }

      .cls-2 {
        fill: url(#linear-gradient);
      }

      .cls-3 {
        isolation: isolate;
      }

      .cls-4 {
        fill: #fff;
      }
    </style>
    <linearGradient id="linear-gradient" x1="128.241" y1="222.795" x2="86.274" y2="-15.212" gradientUnits="userSpaceOnUse">
      <stop offset="0" stop-color="#2cccd3"/>
      <stop offset=".284" stop-color="#24a9b0"/>
      <stop offset=".563" stop-color="#1e8f95"/>
      <stop offset=".81" stop-color="#1b7f84"/>
      <stop offset="1" stop-color="#1a7a7f"/>
    </linearGradient>
  </defs>
  <g class="cls-3">
    <g id="art_outlined" data-name="art outlined">
      <g>
        <path class="cls-2" d="M0,216V0h216v162c0,29.823-24.177,54-54,54H0Z"/>
        <g class="cls-1">
          <rect x="110.475" y="104.322" width="30.789" height="19.714"/>
          <rect x="71.093" y="132.629" width="30.789" height="19.714"/>
          <rect x="149.858" y="132.629" width="30.789" height="19.714"/>
          <rect x="110.475" y="160.937" width="30.789" height="19.714"/>
          <path d="M164.012,104.322c9.187,0,16.635,7.448,16.635,16.635v3.079h-30.789v-19.714h14.154Z"/>
          <path d="M149.858,180.651v-19.714h30.789v3.079c0,9.187-7.448,16.635-16.635,16.635h-14.154Z"/>
          <path d="M71.093,120.957c0-9.187,7.448-16.635,16.635-16.635h14.154v19.714h-30.789v-3.079Z"/>
          <path d="M87.728,180.651c-9.187,0-16.635-7.448-16.635-16.635v-3.079h30.789v19.714h-14.154Z"/>
        </g>
        <rect class="cls-4" y="109.187" width="89.296" height="3.045"/>
        <g>
          <path class="cls-4" d="M27.652,55.348c-.281-1.919-1.74-3.088-3.762-3.088-2.704,0-4.478,2.073-4.478,5.707,0,3.736,1.8,5.707,4.453,5.707,1.97,0,3.438-1.075,3.787-2.943l3.736.017c-.401,3.216-3.104,6.192-7.583,6.192-4.674,0-8.137-3.275-8.137-8.973s3.522-8.973,8.137-8.973c4.043,0,7.097,2.32,7.583,6.354h-3.736Z"/>
          <path class="cls-4" d="M33.926,49.232h11.771v3.045h-8.078v4.163h7.472v3.045h-7.472v4.171h8.112v3.045h-11.805v-17.469Z"/>
          <path class="cls-4" d="M48.523,49.232h6.892c3.966,0,6.261,2.235,6.261,5.707,0,2.388-1.1,4.12-3.087,4.973l3.71,6.79h-4.077l-3.309-6.192h-2.696v6.192h-3.693v-17.469ZM54.724,57.541c2.115,0,3.147-.87,3.147-2.602,0-1.74-1.032-2.687-3.165-2.687h-2.491v5.289h2.508Z"/>
          <path class="cls-4" d="M63.504,49.232h14.347v3.045h-5.348v14.424h-3.65v-14.424h-5.348v-3.045Z"/>
          <path class="cls-4" d="M83.8,66.701h-3.693v-17.469h3.693v17.469Z"/>
          <path class="cls-4" d="M86.726,49.232h11.566v3.045h-7.873v4.163h7.105v3.045h-7.105v7.216h-3.693v-17.469Z"/>
          <path class="cls-4" d="M104.352,66.701h-3.693v-17.469h3.693v17.469Z"/>
          <path class="cls-4" d="M107.278,49.232h11.771v3.045h-8.078v4.163h7.472v3.045h-7.472v4.171h8.112v3.045h-11.805v-17.469Z"/>
          <path class="cls-4" d="M121.875,66.701v-17.469h6.244c5.271,0,8.495,3.275,8.495,8.717s-3.224,8.751-8.546,8.751h-6.193ZM127.914,63.537c3.284,0,5.016-1.689,5.016-5.587s-1.731-5.553-5.007-5.553h-2.354v11.14h2.346Z"/>
          <path class="cls-4" d="M15.916,75.083h11.111v3.045h-7.563v4.163h6.826v3.045h-6.826v7.216h-3.548v-17.469Z"/>
          <path class="cls-4" d="M42.857,75.083v11.344c0,3.821-2.786,6.372-6.957,6.372s-6.957-2.551-6.957-6.372v-11.344h3.548v11.029c0,1.996,1.352,3.438,3.409,3.438s3.409-1.441,3.409-3.438v-11.029h3.548Z"/>
          <path class="cls-4" d="M59.342,92.552h-3.064l-7.301-10.995h-.123v10.995h-3.548v-17.469h3.114l7.244,10.986h.147v-10.986h3.531v17.469Z"/>
          <path class="cls-4" d="M61.8,92.552v-17.469h5.998c5.064,0,8.161,3.275,8.161,8.717s-3.097,8.751-8.21,8.751h-5.949ZM67.601,89.387c3.155,0,4.818-1.689,4.818-5.587s-1.664-5.553-4.81-5.553h-2.262v11.14h2.253Z"/>
          <path class="cls-4" d="M76.261,92.552l5.793-17.469h4.572l5.785,17.469h-3.802l-1.246-3.983h-6.055l-1.246,3.983h-3.802ZM86.471,85.686l-2.065-6.611h-.131l-2.064,6.611h4.261Z"/>
          <path class="cls-4" d="M98.334,75.083l4.622,11.737h.197l4.621-11.737h4.375v17.469h-3.441v-11.37h-.139l-4.343,11.285h-2.343l-4.343-11.327h-.139v11.413h-3.441v-17.469h4.375Z"/>
          <path class="cls-4" d="M114.597,75.083h11.308v3.045h-7.76v4.163h7.178v3.045h-7.178v4.171h7.792v3.045h-11.34v-17.469Z"/>
          <path class="cls-4" d="M142.3,92.552h-3.064l-7.301-10.995h-.123v10.995h-3.548v-17.469h3.114l7.244,10.986h.147v-10.986h3.531v17.469Z"/>
          <path class="cls-4" d="M144.118,75.083h13.782v3.045h-5.138v14.424h-3.507v-14.424h-5.138v-3.045Z"/>
          <path class="cls-4" d="M156.737,92.552l5.793-17.469h4.572l5.785,17.469h-3.802l-1.246-3.983h-6.055l-1.246,3.983h-3.802ZM166.947,85.686l-2.065-6.611h-.131l-2.064,6.611h4.261Z"/>
          <path class="cls-4" d="M174.435,75.083h3.548v14.424h7.194v3.045h-10.742v-17.469Z"/>
          <path class="cls-4" d="M193.298,77.932c-1.737,0-2.696.827-2.696,1.953-.025,1.254,1.196,1.817,2.655,2.167l1.507.375c2.917.682,5.023,2.226,5.031,5.135-.008,3.199-2.417,5.237-6.514,5.237-4.072,0-6.67-1.954-6.76-5.732h3.434c.115,1.749,1.442,2.635,3.286,2.635,1.803,0,2.966-.87,2.975-2.149-.008-1.177-1.024-1.723-2.852-2.184l-1.827-.478c-2.835-.708-4.581-2.184-4.572-4.759-.017-3.173,2.679-5.289,6.358-5.289,3.736,0,6.195,2.149,6.244,5.263h-3.4c-.131-1.373-1.172-2.175-2.868-2.175Z"/>
        </g>
        <g>
          <path class="cls-4" d="M28.224,130.537c-.435-2.26-2.303-3.514-4.529-3.514-3.011,0-5.263,2.329-5.263,6.568,0,4.273,2.261,6.568,5.254,6.568,2.209,0,4.086-1.229,4.538-3.463l2.661.008c-.572,3.455-3.378,5.86-7.216,5.86-4.538,0-7.855-3.386-7.855-8.973s3.335-8.973,7.855-8.973c3.693,0,6.619,2.184,7.216,5.919h-2.661Z"/>
          <path class="cls-4" d="M33.644,146.957l.614-2.09c1.399.384,2.312.239,2.96-1.501l.315-.87-4.793-13.272h2.729l3.318,10.167h.136l3.318-10.167h2.738l-5.399,14.85c-.759,2.064-2.089,3.165-4.196,3.165-.768,0-1.433-.145-1.74-.281Z"/>
          <path class="cls-4" d="M47.464,124.856h2.551v6.491h.153c.452-.811,1.331-2.294,3.762-2.294,3.165,0,5.501,2.499,5.501,6.747s-2.303,6.781-5.476,6.781c-2.388,0-3.327-1.458-3.787-2.294h-.213v2.039h-2.491v-17.469ZM53.384,140.406c2.277,0,3.472-2.005,3.472-4.632,0-2.602-1.16-4.555-3.472-4.555-2.227,0-3.42,1.817-3.42,4.555,0,2.755,1.228,4.632,3.42,4.632Z"/>
          <path class="cls-4" d="M61.585,135.86c0-4.026,2.405-6.807,6.056-6.807,2.968,0,5.8,1.851,5.8,6.584v.904h-9.314c.068,2.525,1.535,3.941,3.719,3.941,1.45,0,2.559-.631,3.02-1.868l2.414.435c-.58,2.132-2.602,3.54-5.459,3.54-3.864,0-6.235-2.662-6.235-6.73ZM70.942,134.631c-.008-2.004-1.305-3.472-3.284-3.472-2.073,0-3.42,1.612-3.523,3.472h6.807Z"/>
          <path class="cls-4" d="M76.165,129.224h2.465v2.081h.136c.478-1.407,1.792-2.277,3.327-2.277.324,0,.827.026,1.083.06v2.44c-.205-.06-.802-.154-1.331-.154-1.808,0-3.13,1.237-3.13,2.951v8.001h-2.55v-13.102Z"/>
          <path class="cls-4" d="M92.782,132.832c-.299-.878-1.032-1.757-2.619-1.757-1.45,0-2.542.716-2.533,1.723-.009.887.614,1.374,2.056,1.715l2.081.478c2.405.554,3.583,1.697,3.583,3.548,0,2.371-2.192,4.052-5.357,4.052-2.942,0-4.87-1.305-5.297-3.625l2.465-.375c.307,1.288,1.288,1.945,2.814,1.945,1.672,0,2.755-.793,2.755-1.809,0-.819-.588-1.382-1.851-1.663l-2.218-.486c-2.457-.546-3.583-1.783-3.583-3.642,0-2.32,2.099-3.881,5.058-3.881,2.832,0,4.427,1.331,4.956,3.369l-2.312.409Z"/>
          <path class="cls-4" d="M97.442,135.86c0-4.026,2.405-6.807,6.056-6.807,2.968,0,5.8,1.851,5.8,6.584v.904h-9.314c.068,2.525,1.535,3.941,3.719,3.941,1.45,0,2.559-.631,3.02-1.868l2.414.435c-.58,2.132-2.602,3.54-5.459,3.54-3.864,0-6.235-2.662-6.235-6.73ZM106.799,134.631c-.008-2.004-1.305-3.472-3.284-3.472-2.073,0-3.42,1.612-3.523,3.472h6.807Z"/>
          <path class="cls-4" d="M111.434,135.834c0-4,2.388-6.781,6.082-6.781,2.977,0,5.135,1.757,5.408,4.401h-2.482c-.273-1.228-1.262-2.251-2.883-2.251-2.132,0-3.548,1.766-3.548,4.572,0,2.857,1.391,4.657,3.548,4.657,1.459,0,2.559-.836,2.883-2.252h2.482c-.281,2.55-2.286,4.41-5.382,4.41-3.805,0-6.107-2.807-6.107-6.756Z"/>
          <path class="cls-4" d="M133.843,129.224h2.559v13.102h-2.508v-2.269h-.136c-.606,1.399-1.945,2.439-3.916,2.439-2.516,0-4.299-1.688-4.299-4.938v-8.333h2.55v8.026c0,1.783,1.092,2.926,2.67,2.926,1.433,0,3.088-1.058,3.079-3.284v-7.668Z"/>
          <path class="cls-4" d="M139.707,129.224h2.465v2.081h.136c.478-1.407,1.792-2.277,3.327-2.277.324,0,.827.026,1.083.06v2.44c-.205-.06-.802-.154-1.331-.154-1.808,0-3.13,1.237-3.13,2.951v8.001h-2.55v-13.102Z"/>
          <path class="cls-4" d="M148.494,125.684c0-.835.725-1.526,1.612-1.526.878,0,1.612.691,1.612,1.526s-.734,1.519-1.612,1.519c-.887,0-1.612-.683-1.612-1.519ZM148.818,129.224h2.55v13.102h-2.55v-13.102Z"/>
          <path class="cls-4" d="M160.794,131.271h-2.687v7.208c0,1.476.742,1.749,1.569,1.749.409,0,.725-.077.896-.111l.46,2.106c-.298.111-.844.265-1.654.273-2.013.043-3.83-1.109-3.821-3.488v-7.737h-1.919v-2.047h1.919v-3.139h2.55v3.139h2.687v2.047Z"/>
          <path class="cls-4" d="M163.363,146.957l.614-2.09c1.399.384,2.312.239,2.96-1.501l.315-.87-4.794-13.272h2.729l3.318,10.167h.136l3.318-10.167h2.738l-5.399,14.85c-.759,2.064-2.089,3.165-4.196,3.165-.768,0-1.433-.145-1.74-.281Z"/>
        </g>
        <g>
          <g>
            <rect class="cls-4" x="51.286" y="15.953" width="8.322" height="5.329"/>
            <rect class="cls-4" x="40.642" y="23.604" width="8.322" height="5.329"/>
            <rect class="cls-4" x="61.931" y="23.604" width="8.322" height="5.329"/>
            <rect class="cls-4" x="51.286" y="31.255" width="8.322" height="5.329"/>
            <path class="cls-4" d="M65.757,15.953c2.483,0,4.496,2.013,4.496,4.496v.832h-8.322v-5.329h3.826Z"/>
            <path class="cls-4" d="M61.931,36.584v-5.329h8.322v.832c0,2.483-2.013,4.496-4.496,4.496h-3.826Z"/>
            <path class="cls-4" d="M40.642,20.449c0-2.483,2.013-4.496,4.496-4.496h3.826v5.329h-8.322v-.832Z"/>
            <path class="cls-4" d="M45.138,36.584c-2.483,0-4.496-2.013-4.496-4.496v-.832h8.322v5.329h-3.826Z"/>
          </g>
          <g>
            <path class="cls-4" d="M96.923,21.506c0-3.067-2.487-5.554-5.554-5.554h-17.173v20.631h5.037v-7.336h11.242c.629,0,1.14.51,1.14,1.14v6.196h5.037v-6.196c0-1.121-.576-2.106-1.448-2.678,1.059-1.011,1.72-2.436,1.72-4.016v-2.187ZM91.887,23.677c0,.629-.51,1.14-1.14,1.14h-11.514v-4.433h11.514c.629,0,1.14.51,1.14,1.14v2.153Z"/>
            <path class="cls-4" d="M148.19,15.952h-17.206s-.005,0-.005,0v20.631h5.037v-16.2h11.552c.629,0,1.14.51,1.14,1.14v15.06h5.037v-15.077c0-3.067-2.487-5.554-5.554-5.554Z"/>
            <polygon class="cls-4" points="122.037 36.583 127.074 36.583 127.074 26.268 127.074 15.952 122.037 15.952 122.037 26.268 122.037 36.583"/>
            <polygon class="cls-4" points="119.485 15.952 108.378 15.952 99.168 15.952 99.168 20.384 104.989 20.384 104.989 36.583 110.026 36.583 110.026 20.384 119.485 20.384 119.485 15.952"/>
            <polygon class="cls-4" points="200.849 15.952 180.531 15.952 180.531 20.384 186.353 20.384 186.353 36.583 191.389 36.583 191.389 20.384 200.849 20.384 200.849 15.952"/>
            <polygon class="cls-4" points="162.69 32.152 162.69 28.45 175.768 28.45 175.768 24.019 162.69 24.019 162.69 20.384 177.971 20.384 177.971 15.952 157.653 15.952 157.653 36.583 178.246 36.583 178.246 32.152 162.69 32.152"/>
            <polygon class="cls-4" points="38.013 20.384 38.013 15.953 15.908 15.953 15.908 26.268 15.908 36.584 20.944 36.584 20.944 29.248 35.536 29.248 35.536 24.817 20.944 24.817 20.944 20.384 38.013 20.384"/>
          </g>
        </g>
      </g>
    </g>
  </g>
</svg>